<svg width="46" height="70" viewBox="0 0 46 70" fill="none" xmlns="http://www.w3.org/2000/svg">
<path d="M11.5 70C17.848 70 23 64.7733 23 58.3333V46.6667H11.5C5.152 46.6667 0 51.8933 0 58.3333C0 64.7733 5.152 70 11.5 70Z" fill="#0ACF83"/>
<path d="M0 35C0 28.56 5.152 23.3333 11.5 23.3333H23V46.6667H11.5C5.152 46.6667 0 41.44 0 35Z" fill="#A259FF"/>
<path d="M0 11.6667C0 5.22667 5.152 0 11.5 0H23V23.3333H11.5C5.152 23.3333 0 18.1067 0 11.6667Z" fill="#F24E1E"/>
<path d="M23 0H34.5C40.848 0 46 5.22667 46 11.6667C46 18.1067 40.848 23.3333 34.5 23.3333H23V0Z" fill="#FF7262"/>
<path d="M46 35C46 41.44 40.848 46.6667 34.5 46.6667C28.152 46.6667 23 41.44 23 35C23 28.56 28.152 23.3333 34.5 23.3333C40.848 23.3333 46 28.56 46 35Z" fill="#1ABCFE"/>
</svg>
