<svg width="31" height="34" viewBox="0 0 31 34" fill="none" xmlns="http://www.w3.org/2000/svg">
<path d="M27.5423 17.1828H26.4221V17.1251H13.9064V22.6877H21.7656C20.619 25.9258 17.538 28.2502 13.9064 28.2502C9.29851 28.2502 5.56256 24.5143 5.56256 19.9064C5.56256 15.2985 9.29851 11.5626 13.9064 11.5626C16.0334 11.5626 17.9684 12.365 19.4418 13.6756L23.3752 9.74221C20.8916 7.42749 17.5693 6 13.9064 6C6.22659 6 0 12.2266 0 19.9064C0 27.5862 6.22659 33.8128 13.9064 33.8128C21.5862 33.8128 27.8128 27.5862 27.8128 19.9064C27.8128 18.974 27.7168 18.0638 27.5423 17.1828Z" fill="#FFC107"/>
<path d="M1.60327 13.4337L6.17221 16.7844C7.40849 13.7236 10.4025 11.5626 13.9063 11.5626C16.0332 11.5626 17.9683 12.365 19.4417 13.6756L23.3751 9.74221C20.8914 7.42749 17.5692 6 13.9063 6C8.56481 6 3.93259 9.0156 1.60327 13.4337Z" fill="#FF3D00"/>
<path d="M13.9065 33.8128C17.4985 33.8128 20.7624 32.4381 23.2301 30.2027L18.926 26.5606C17.5298 27.6182 15.7943 28.2502 13.9065 28.2502C10.2895 28.2502 7.21825 25.9439 6.06124 22.7252L1.52637 26.2192C3.82787 30.7228 8.50181 33.8128 13.9065 33.8128Z" fill="#4CAF50"/>
<path d="M27.5424 17.1828H26.4222V17.1251H13.9065V22.6877H21.7657C21.215 24.2431 20.2144 25.5844 18.9239 26.5613C18.9246 26.5606 18.9253 26.5606 18.926 26.5599L23.23 30.202C22.9255 30.4787 27.8129 26.8596 27.8129 19.9064C27.8129 18.974 27.7169 18.0638 27.5424 17.1828Z" fill="#1976D2"/>
<circle cx="22.9999" cy="8.99999" r="5.6" fill="white"/>
<mask id="mask0_563_32" style="mask-type:alpha" maskUnits="userSpaceOnUse" x="14" y="0" width="17" height="17">
<rect x="14" width="17" height="17" fill="#D9D9D9"/>
</mask>
<g mask="url(#mask0_563_32)">
<path d="M20.0916 15.9375L18.7458 13.6708L16.1958 13.1042L16.4437 10.4833L14.7083 8.5L16.4437 6.51667L16.1958 3.89583L18.7458 3.32917L20.0916 1.0625L22.4999 2.08958L24.9083 1.0625L26.2541 3.32917L28.8041 3.89583L28.5562 6.51667L30.2916 8.5L28.5562 10.4833L28.8041 13.1042L26.2541 13.6708L24.9083 15.9375L22.4999 14.9104L20.0916 15.9375ZM21.7562 11.0146L25.7583 7.0125L24.7666 5.98542L21.7562 8.99583L20.2333 7.50833L19.2416 8.5L21.7562 11.0146Z" fill="#0496FF"/>
</g>
</svg>
