<svg id="Layer_1" data-name="Layer 1" xmlns="http://www.w3.org/2000/svg" viewBox="0 0 333.33 383.98"><defs><style>.cls-1{fill:#ff7e50;}.cls-2{fill:#ffa68a;}.cls-3{fill:none;stroke:#fff;stroke-miterlimit:10;}.cls-4{fill:#ffe8c8;}.cls-5{fill:#fab684;}</style></defs><title>sunglasses</title><path class="cls-1" d="M53.15,47c9.75,53.11,30.35,72.67,45,81,7.42,4.23,7.15,2.06,38,15,29.74,12.48,37.41,17.61,53,20,16.69,2.57,22.4-5.93,40-2,6.82,1.53,12.15,3.86,17,1,6-3.51,4.89-11.17,8-21,5.39-17,19.1-27.17,27-33,19-14,33.65-11.26,35-19,1.82-10.43-23.45-23.2-27-25-26.53-13.41-45-8-53-22-4.07-7-.41-10.24-5-17-5.58-8.2-15.3-9.88-40-13-33.47-4.22-50.44-6.31-62-5-19.33,2.19-32.12,7.36-36,9a93.28,93.28,0,0,0-24,14A89.2,89.2,0,0,0,53.15,47Z"/><polygon class="cls-2" points="16.15 190.98 16.15 141.98 30.15 85.03 53.15 46.98 60.07 74.68 68.57 95.24 81.64 114.53 98.15 127.98 93.15 133.98 66.15 144.98 57.15 156.98 48.15 171.98 45.15 190.98 16.15 190.98"/><polygon class="cls-2" points="306.15 191.04 308.47 142.33 308.47 118.98 319.26 104.28 319.26 91.78 301.27 97.46 282.01 107.36 259.98 128.76 249.97 163.47 255.08 166.19 268.71 163.47 274.96 166.75 274.96 179.82 275.52 188.34 284.61 190.98 292.56 191.04 306.15 191.04"/><polygon class="cls-3" points="275.52 194.58 278.93 218.44 277.23 236.61 278.93 254.79 292.56 250.25 311.88 241.73 316.24 224.69 316.24 211.62 306.76 199.13 299.38 194.58 279.35 186.29 275.52 194.58"/><polygon class="cls-3" points="12.33 201.09 4.73 218.47 10.52 237.48 24.28 252.68 39.12 253.41 44.74 243.63 44.74 210.5 44.74 192.58 26.45 194.21 12.33 201.09"/><polygon class="cls-4" points="41.81 263.06 51.15 292.81 67.41 314.25 89.2 340.54 118.25 364.75 140.38 376.16 166.15 378.58 200.56 367.86 222.7 349.88 249.97 323.24 270.08 293.15 275.52 275.17 279.42 263.06 272.16 223 273.89 207.38 272.65 172.02 269.47 165.44 253.13 169.05 236.58 166.72 216.63 165.44 204.32 166.93 141.94 142.74 96.74 134.89 76.37 143.37 57.15 158.44 49.85 178.6 48.36 214.46 47.09 243.32 41.81 263.06"/><path d="M153.9,384c-6.16-1.48-12.65-2.19-18.38-4.65-8-3.41-15.48-7.93-22.92-12.41-3.63-2.18-4-5.92-1.84-8.64s5.22-2.73,8.63-.25c28,20.38,60.61,19.6,87.36-2.29,19.49-15.95,38-32.91,52.24-53.94,9.46-14,15.86-28.9,14.09-46.3-.63-6.21-1.19-12.43-1.89-18.63-.54-4.75-3.54-7.48-7.84-7.37s-7.18,3.3-7.4,8.23c-1,22.91-16.54,40-39.28,43.1s-45.78-14.6-48.57-37.46c-.25-2.11-.39-4.23-.58-6.34-.36-3.95-2.56-6.17-6.14-6.17s-5.93,2.2-6.1,6.16c-.44,10-3.34,19.12-9.54,27.1a44.14,44.14,0,0,1-78.89-25.26c-.26-6.83-4.94-10.92-10.24-8.44-2.06,1-4.5,3.53-4.71,5.58a230.87,230.87,0,0,0-1.64,28.41c.28,15.51,7.29,28.83,16.57,40.6,9,11.44,19.34,21.86,29.11,32.7,1,1.11,2.21,2,3.25,3.11,2.7,2.81,2.91,5.93.62,8.3s-5.55,2.52-8.32-.13c-5.87-5.62-11.79-11.19-17.32-17.13C61,317.69,49,302.62,42.81,284c-2.61-7.94-3.57-16.44-5.34-25a96.31,96.31,0,0,1-9.76-1.57A36.82,36.82,0,0,1,9,197.62a9.42,9.42,0,0,0,2.05-5.6c.24-15.5,0-31,.44-46.49.24-7.95,1.59-15.89,2.71-23.79.63-4.41,3.48-6.35,7.25-5.6,3.09.62,4.73,3.73,3.95,7.73-4.09,20.92-2.36,42.06-2.72,62.77,5.3-.6,10.35-1,15.34-1.86.95-.15,2.2-1.75,2.39-2.84,3.5-20.25,14.09-35.62,32.08-45.44,6.26-3.41,13.33-5.34,20-7.92-22.06-16.18-40.77-35.5-41-67.13-2,3-3.95,5.09-5.2,7.57q-7,13.83-13.66,27.84c-2.24,4.75-6.71,6.32-9.6,2.68a7.88,7.88,0,0,1-1.13-6.41C29.22,71.9,40.79,53.26,57.26,37.84,80.16,16.41,107.67,5.07,138.53,1.4c38-4.52,70.9,2.1,105.88,17.12,3.36,1.44,24.64,12.91,24.64,12.91S250,28.17,248.19,34.17c-.13.45,14.06,4.54,21.39,7.22,25.9,9.48,46.79,25.44,61.59,49,3.09,4.91,2.93,6.75-.91,11a63.91,63.91,0,0,0-17.32,44.28c-.09,16.12-.05,32.25,0,48.37a7.86,7.86,0,0,0,1.26,4.44c9.08,12,11.2,25,4.89,38.75s-17.58,20.63-32.58,21.55c-.5,0-1,.13-1.41.19-.62,5.5-.82,11-1.94,16.33-3.49,16.54-12.32,30.43-22.62,43.45-14.83,18.73-32.36,34.73-51.12,49.38a75.19,75.19,0,0,1-37.73,15.28,12.13,12.13,0,0,0-2.07.66ZM295,93.68a5.6,5.6,0,0,0-.32-1.32A26.2,26.2,0,0,0,293,89.9a120.11,120.11,0,0,0-47.78-35.82c-12.3-5.16-42.56-13-44-13.68,1.1-1.15,12.07-4.11,15.8-5.86,1.08-.51,2.53-1.82,2.5-2.73s-1.48-2.29-2.58-2.68A154.49,154.49,0,0,0,200.48,24a231.82,231.82,0,0,0-50.18-5.29c-7.87-.05-15.77.37-23.62-.08C108.17,17.56,92.81,25.29,78.83,36,63.88,47.47,60,64,67,81.54c5.73,14.28,16,24.89,28.12,33.88,14.81,11,53.61,27.65,71.79,31.78,25.21,5.73,50.46,10,76.43,6.68,2.42-.3,3.35-1.31,4.12-3.44a182.33,182.33,0,0,1,6.94-17.35c7.89-16.13,19-29.27,35.61-37.15C291.66,95.15,293.35,94.43,295,93.68ZM270.79,218.85a7.59,7.59,0,0,0,.41-1.74c0-14.37.11-28.74,0-43.11,0-3.67-1.82-4.73-5.44-3.93-9.13,2-18.24,4.11-27.44,5.75-2,.35-5.55-.45-6.23-1.81-1.87-3.69-4.65-3.4-7.74-3.36-2.62,0-5.24-.2-7.85-.18-.77,0-2,.32-2.2.8-2,5.65-6.34,4.69-10.6,3.89a178.16,178.16,0,0,1-47.94-16.57c-12.9-6.55-25.84-13-40-16.57-30.61-7.71-60.32,12-63.84,43.3-1.25,11.1-.3,22.44-.33,33.67,0,.17.29.34-.07,0h15.3c0-1.64,0-3.64,0-5.63C67,209.19,69,207,73.08,207q37.86-.08,75.72,0c4.08,0,6.16,2.14,6.39,6.25.12,2.22,0,4.45,0,6.49h12.32v-4.42c0-6.7,1.7-8.35,8.48-8.35h47.23c8.75,0,17.49-.05,26.24,0,4.34,0,6.36,2.15,6.47,6.49.05,1.85,0,3.71,0,5.55a62.2,62.2,0,0,1,7.3-.94A67.25,67.25,0,0,1,270.79,218.85ZM312.86,102.5c-22.41-1.8-53.78,30.51-54.71,57.22,1.73-.42,3.41-.79,5.08-1.22,10.51-2.72,19.73,4.29,19.93,15.18,0,2.74-.12,5.5.1,8.23a3.08,3.08,0,0,0,1.68,2.3c5.32,1,10.69,1.83,16.39,2.76v-3.45c0-13.61-.18-27.23.1-40.83a56.9,56.9,0,0,1,2.14-15.46C306.16,118.86,309.7,110.77,312.86,102.5ZM39.73,196.9c-14.37-1.67-27.18,8.84-28.18,22.67-1.07,14.77,10.32,27.51,24.71,27.69,1.92,0,3.49-.1,3.49-2.66C39.71,228.77,39.73,213,39.73,196.9Zm243.82,50.29c10.52.15,18.32-3.62,23.69-11.95a24.79,24.79,0,0,0-.7-27.86c-5.67-7.89-13.44-11.43-23-10.72Z"/><path d="M164.08,329c-5.66.12-8.4-1.94-8.61-5.38s2.28-5.69,6.63-5.94c15.69-.91,27.78-7.88,36.11-21.29,2.14-3.43,5.32-4.4,8.21-2.69s3.6,5.17,1.36,8.78C197.38,319.23,182.18,327.82,164.08,329Z"/><path class="cls-5" d="M39.73,196.9c0,16,0,31.87,0,47.7,0,2.56-1.57,2.68-3.49,2.66-14.39-.18-25.78-12.92-24.71-27.69C12.55,205.74,25.36,195.23,39.73,196.9Z"/><path class="cls-5" d="M283.55,247.19V196.66c9.55-.71,17.32,2.83,23,10.72a24.79,24.79,0,0,1,.7,27.86C301.87,243.57,294.07,247.34,283.55,247.19Z"/></svg>