<svg width="126" height="121" viewBox="0 0 126 121" fill="none" xmlns="http://www.w3.org/2000/svg">
<path d="M124.121 58.2012L109.364 53.4447C99.9255 50.3302 94.3957 42.6922 91.8003 33.0944L85.3064 1.46192C85.1369 0.836894 84.7237 0 83.4525 0C82.3825 0 81.7681 0.836894 81.5986 1.46192L75.1048 33.105C72.4987 42.7028 66.9795 50.3407 57.5406 53.4553L42.7837 58.2118C40.6968 58.8898 40.665 61.8348 42.7413 62.5446L57.6041 67.6613C67.0113 70.7864 72.4987 78.4138 75.1048 87.9692L81.6092 119.252C81.7787 119.877 82.1283 121 83.4631 121C84.872 121 85.1475 119.877 85.317 119.252L91.8214 87.9692C94.4275 78.4032 99.915 70.7758 109.322 67.6613L124.185 62.5446C126.24 61.8242 126.208 58.8792 124.121 58.2012Z" fill="#FDD835"/>
<path d="M125.522 59.5254C125.288 58.9428 124.833 58.4343 124.123 58.2012L109.366 53.4447C99.9274 50.3302 94.3975 42.6922 91.8021 33.0944L85.3082 1.46194C85.2129 1.10176 84.8739 0.444957 84.4819 0.254272L86.5795 32.0033C88.1367 46.4953 89.4715 53.3176 101.04 55.3092C110.977 57.0253 122.471 58.9957 125.522 59.5254Z" fill="#FFEE58"/>
<path d="M125.552 61.1779L99.9581 67.0467C90.9429 69.3349 85.9746 74.5576 85.9746 88.2233L83.4639 121C84.3219 120.915 85.0211 120.449 85.3177 119.252L91.8222 87.969C94.4282 78.403 99.9157 70.7757 109.323 67.6611L124.186 62.5444C124.885 62.2902 125.33 61.7711 125.552 61.1779Z" fill="#F4B400"/>
<path d="M39.6069 85.7233C30.7824 82.81 29.9773 79.526 28.4942 73.9856L24.797 61.019C24.5746 60.1821 22.3923 60.1821 22.1592 61.019L19.6485 73.0004C18.1548 78.5196 14.9768 82.9054 9.55284 84.6957L0.908471 88.4458C-0.288605 88.8378 -0.309792 90.5328 0.887284 90.9353L9.59522 94.0181C14.9979 95.8084 18.1548 100.194 19.6591 105.692L22.1698 117.154C22.4029 117.991 24.5746 117.991 24.797 117.154L27.742 105.745C29.2357 100.215 31.524 95.819 38.8653 94.0181L47.0436 90.9353C48.2406 90.5222 48.23 88.8272 47.0224 88.4352L39.6069 85.7233Z" fill="#FDD835"/>
<path d="M25.4981 73.7948C26.3985 82.1213 26.8541 84.4307 33.6022 86.1575L47.6599 88.9012C47.5116 88.6999 47.2997 88.5304 47.0137 88.4457L39.5981 85.7231C31.8542 83.0747 29.7143 79.706 28.263 72.9685C26.8117 66.2309 25.265 61.8346 25.265 61.8346C24.7247 60.3833 23.9514 60.4574 23.9514 60.4574L25.4981 73.7948Z" fill="#FFEE58"/>
<path d="M25.7498 102.864C25.7498 95.0142 30.0402 91.1264 36.8624 91.1264L47.4772 90.692C47.4772 90.692 46.8628 91.5077 45.7928 91.762L38.8646 94.0184C32.9852 96.3808 30.305 97.5673 28.4829 105.608C28.4829 105.608 26.1311 114.962 25.6862 115.947C25.0718 117.324 24.3408 117.61 24.3408 117.61L25.7498 102.864Z" fill="#F4B400"/>
<path d="M58.5999 23.5709C59.1931 23.3696 59.1719 22.5221 58.5681 22.3526L50.3898 20.1492C48.6737 19.6831 47.3389 18.3589 46.8516 16.6533L43.6311 3.35834C43.4722 2.71213 42.5506 2.71213 42.3917 3.36893L39.3619 16.6109C38.8958 18.3695 37.5186 19.7254 35.7601 20.181L27.6348 22.2891C27.031 22.448 26.9886 23.2955 27.5818 23.5073L36.152 26.4736C37.6881 27.0032 38.8746 28.2533 39.3407 29.8105L42.4023 42.0885C42.5612 42.7241 43.4722 42.7347 43.6311 42.0885L46.7986 29.7682C47.2753 28.2109 48.4724 26.9715 50.019 26.4524L58.5999 23.5709Z" fill="#F4B400" stroke="#F4B400" stroke-width="0.370607" stroke-miterlimit="10"/>
</svg>
